<?xml version="1.0" encoding="utf-8"?>
<!-- Generator: Adobe Illustrator 18.0.0, SVG Export Plug-In . SVG Version: 6.00 Build 0)  -->
<!DOCTYPE svg PUBLIC "-//W3C//DTD SVG 1.1//EN" "http://www.w3.org/Graphics/SVG/1.1/DTD/svg11.dtd">
<svg version="1.1" id="Layer_1" xmlns="http://www.w3.org/2000/svg" xmlns:xlink="http://www.w3.org/1999/xlink" x="0px" y="0px"
	 viewBox="0 0 42 42" enable-background="new 0 0 42 42" xml:space="preserve">
<g>
	<path fill="none" d="M17.5,8.4L17.5,8.4l-2.3,0v1.7c0.5,0,2.2,0,2.2,0l0,0c0.1,0,0.6,0,0.8-0.2c0.1-0.1,0.2-0.3,0.2-0.6
		c0-0.3-0.1-0.5-0.2-0.6C18.1,8.4,17.7,8.4,17.5,8.4z"/>
	<polygon fill="#FFEBCD" points="26.1,27.8 31.5,30.5 36.8,27.8 34.1,26.6 34.4,25.8 34.1,25.7 31.4,28.5 28.7,25.8 28.3,25.9 
		28.7,26.7 	"/>
	<polygon fill="#FFEBCD" points="31.6,31.8 31.6,38.1 37.5,35.1 37.5,31.8 33.1,34.2 	"/>
	<polygon fill="#FFEBCD" points="37.8,28.3 32.2,31.2 33.4,33 38.9,29.9 	"/>
	<polygon fill="#FFEBCD" points="30.7,31.2 25.1,28.3 23.7,30.1 29.3,33 	"/>
	<polygon fill="#FFEBCD" points="38.4,35.7 31.5,39.2 24.5,35.7 24.5,31.6 24.5,31.6 24.5,35.7 31.5,39.2 38.5,35.7 38.5,31.3 
		38.4,31.3 	"/>
	<polygon fill="#FFEBCD" points="25.4,32.1 25.4,35.1 31.1,38 31.1,32.1 29.6,34.2 	"/>
	<path fill="#3D6480" d="M38.4,27.4l-4-1.7l0,0.1l-0.3,0.8l2.7,1.1l-5.3,2.7l-5.4-2.7l2.6-1.1l-0.3-0.8l0-0.1l-3.8,1.6l-2.2,3
		l2.2,1.1l0,0v4.1l7,3.5l7-3.5v-4.4l0,0l1.8-1L38.4,27.4z M23.7,30.1l1.4-1.8l5.6,2.8L29.3,33L23.7,30.1z M31.1,38l-5.7-2.9v-3
		l4.1,2.2l1.5-2.1V38z M37.5,35.1l-5.9,3v-6.3l1.6,2.4l4.3-2.4V35.1z M33.4,33l-1.2-1.8l5.6-2.9l1.1,1.7L33.4,33z"/>
	<path fill="#0CB20F" d="M34.1,25.7L34.1,25.7l-0.6-0.8l-1.6,1.6v-1.7c0-2.8-1.2-4.1-3.9-4.1v1c2.2,0,2.9,0.8,2.9,3v1.7l-1.7-1.7
		l-0.7,0.7l0.2,0.2l2.7,2.7L34.1,25.7z"/>
	<polygon fill="#1B2D48" points="7,5.8 34.7,5.8 34.7,4.7 6,4.7 6,9.3 7,9.3 	"/>
	<polygon fill="#1B2D48" points="35.2,12.1 34.2,12.1 34.2,15.6 6.5,15.6 6.5,16.6 35.2,16.6 	"/>
	<path fill="#1E4476" d="M9.7,8.4h4.1v-1H9.1c0,0-2.2,3.9-2.6,4.7C6,11.3,3.8,7.4,3.8,7.4H2.6l3.8,6.8C6.5,14.2,9.6,8.7,9.7,8.4z"/>
	<polygon fill="#1E4476" points="13.8,11.2 13.8,10.1 9.2,10.1 9.2,13.9 13.8,13.9 13.8,12.8 10.2,12.8 10.2,11.2 	"/>
	<path fill="#1E4476" d="M19.6,9.2c0-0.6-0.2-1-0.6-1.4c-0.6-0.5-1.4-0.5-1.6-0.5h-3.3v6.5h1.1v-2.8c0.5,0,2.1,0,2.2,0
		c0.1,0.3,1.5,2.8,1.5,2.8h1.2c0,0-1.4-2.5-1.6-3c0.2-0.1,0.3-0.2,0.5-0.3C19.4,10.3,19.6,9.8,19.6,9.2z M18.3,9.9
		c-0.2,0.2-0.7,0.2-0.8,0.2l0,0c0,0-1.8,0-2.2,0V8.4h2.2l0,0c0.1,0,0.6,0,0.8,0.2c0.1,0.1,0.2,0.3,0.2,0.6
		C18.5,9.5,18.5,9.7,18.3,9.9z"/>
	<rect x="25.3" y="7.4" fill="#1E4476" width="1.1" height="6.5"/>
	<path fill="#1E4476" d="M34.7,7.1L32,11.7c-0.4,0.7-1.2,1.2-2,1.2c-1.2,0-2.3-1-2.3-2.2c0-1.2,1-2.2,2.3-2.2c0.6,0,1.2,0.3,1.7,0.7
		l0.2,0.2l0.5-0.9c-0.6-0.7-1.5-1-2.4-1c-1.8,0-3.3,1.5-3.3,3.3c0,1.8,1.5,3.3,3.3,3.3c1.2,0,2.3-0.7,2.9-1.7c0,0,1.1-1.9,1.8-3
		c0.7,1.3,2.6,4.4,2.7,4.5l0.1,0.1h1.2L34.7,7.1z"/>
	<polygon fill="#1E4476" points="32.9,12.2 32.9,12.2 32.9,12.2 	"/>
	<path fill="#1E4476" d="M22.6,13.9V8.4h2.2v-1h-5.6c0.1,0.1,0.2,0.1,0.3,0.2c0.3,0.2,0.4,0.5,0.5,0.9h1.6v5.5H22.6z"/>
</g>
</svg>
